<?xml version="1.0" standalone="no"?><!DOCTYPE svg PUBLIC "-//W3C//DTD SVG 1.1//EN" "http://www.w3.org/Graphics/SVG/1.1/DTD/svg11.dtd"><svg t="1734624232428" class="icon" viewBox="0 0 1024 1024" version="1.1" xmlns="http://www.w3.org/2000/svg" p-id="11110" xmlns:xlink="http://www.w3.org/1999/xlink" width="200" height="200"><path d="M121.856 41.813333h247.125333A75.093333 75.093333 0 0 1 443.733333 116.736v247.125333a74.922667 74.922667 0 0 1-74.922666 74.922667H121.856a74.922667 74.922667 0 0 1-74.922667-74.922667V116.736a74.922667 74.922667 0 0 1 74.922667-74.922667zM121.856 585.216h247.125333a75.093333 75.093333 0 0 1 75.093334 75.093333v246.954667a75.093333 75.093333 0 0 1-75.093334 75.093333H121.856a74.922667 74.922667 0 0 1-74.922667-74.922666V660.138667a74.922667 74.922667 0 0 1 74.922667-74.922667z" fill="#000000" p-id="11111"></path><path d="M580.096 41.813333m74.922667 0l247.125333 0q74.922667 0 74.922667 74.922667l0 247.125333q0 74.922667-74.922667 74.922667l-247.125333 0q-74.922667 0-74.922667-74.922667l0-247.125333q0-74.922667 74.922667-74.922667Z" fill="#000000" p-id="11112"></path><path d="M738.645333 576.512a25.6 25.6 0 0 0-25.6 25.6v99.669333a19.797333 19.797333 0 0 1-8.533333 17.066667v-126.805333a25.6 25.6 0 0 0-51.2 0v126.634666a19.797333 19.797333 0 0 1-8.533333-17.066666v-99.498667a25.6 25.6 0 0 0-51.2 0v99.669333a72.874667 72.874667 0 0 0 59.733333 71.850667v182.954667a25.6 25.6 0 0 0 51.2 0V773.632a72.874667 72.874667 0 0 0 59.733333-71.850667v-99.669333a25.6 25.6 0 0 0-25.6-25.6zM906.069333 566.613333a25.770667 25.770667 0 0 0-23.552 27.648l30.037334 364.544A25.429333 25.429333 0 0 0 938.666667 982.186667h2.048a25.770667 25.770667 0 0 0 23.552-27.648l-30.72-364.544a25.429333 25.429333 0 0 0-27.477334-23.381334zM850.432 566.613333a25.6 25.6 0 0 0-27.648 23.381334l-29.866667 364.544a25.6 25.6 0 0 0 23.381334 27.648H819.2a25.6 25.6 0 0 0 25.429333-23.381334l29.184-364.544a25.6 25.6 0 0 0-23.381333-27.648z" fill="#000000" p-id="11113"></path></svg>